inDegrees=yes
name=ik_Xsens_quaternion
DataType=double
version=3
OpenSimVersion=4.4-2022-07-23-0e9fedc
endheader
time	pelvis_tilt	pelvis_list	pelvis_rotation	pelvis_tx	pelvis_ty	pelvis_tz	hip_flexion_r	hip_adduction_r	hip_rotation_r	knee_angle_r	knee_angle_r_beta	ankle_angle_r	subtalar_angle_r	mtp_angle_r	hip_flexion_l	hip_adduction_l	hip_rotation_l	knee_angle_l	knee_angle_l_beta	ankle_angle_l	subtalar_angle_l	mtp_angle_l	lumbar_extension	lumbar_bending	lumbar_rotation	arm_flex_r	arm_add_r	arm_rot_r	elbow_flex_r	pro_sup_r	wrist_flex_r	wrist_dev_r	arm_flex_l	arm_add_l	arm_rot_l	elbow_flex_l	pro_sup_l	wrist_flex_l	wrist_dev_l
12.88333333333333	590.8900071688483	-379.866208994446	159.4159208440352	0	0.93	0	70.06852936525355	-17.01375593201511	1.764155643444422	0.0006220402872794783	1.08566510930783e-05	-4.999999851048226	0	0	45.00000011886164	-9.999999988573334	6.571435938969846e-18	60.00014061962229	1.047200005472	-4.999999851052269	0	0	0	0	0	0	0	0	0	0	0	3.295359256881808e-36	0	0	0	0	0	0	3.295359256881808e-36
12.9	588.3984951767322	-380.6066505145965	160.1187250228367	0	0.93	0	70.72049326321006	-16.74761867679783	0.9709762678121707	0.0006201234115522175	1.082319530028604e-05	-4.999999851048218	0	0	45.00000011886164	-9.999999988573334	6.571435938969846e-18	60.00014061962229	1.047200005472	-4.999999851052214	0	0	0	0	0	0	0	0	0	0	0	6.385920798403448e-40	0	0	0	0	0	0	6.385920798403448e-40
12.91666666666667	586.2013445775485	-381.3412517782358	160.8160473279887	0	0.93	0	71.27023393458056	-16.49014887295324	0.2632947355785869	0.0006174203717558892	1.077601835602767e-05	-4.99999985104821	0	0	45.00000011886164	-9.999999988573334	6.571435938969846e-18	60.00014061962229	1.047200005472	-4.99999985105216	0	0	0	0	0	0	0	0	0	0	0	1.060479717975534e-43	0	0	0	0	0	0	1.060479717975534e-43
12.93333333333333	583.3382001851166	-381.9617939234122	162.0854731347088	0	0.93	0	72.01043423519421	-16.0626422488627	-0.4614328203535181	0.000624787450551891	1.090459813727176e-05	-4.999999851048202	0	0	45.00000011886164	-9.999999988573334	6.571435938969846e-18	60.00014061962229	1.047200005472	-4.999999851052107	0	0	0	0	0	0	0	0	0	0	0	0	0	0	0	0	0	0	0
12.95	580.6485854551427	-382.353521699009	163.2812284153457	0	0.93	0	72.74173709032274	-15.67879996904386	-1.086909836895432	0.0006336778179123006	1.105976431942275e-05	-4.999999851048194	0	0	45.00000011886164	-9.999999988573334	6.571435938969846e-18	60.00014061962229	1.047200005472	-4.999999851052058	0	0	0	0	0	0	0	0	0	0	0	0	0	0	0	0	0	0	0
12.96666666666667	578.6619485622957	-382.53677291702	164.2421325558524	0	0.93	0	73.26280832440952	-15.36881328728497	-1.504905735755497	0.0006376911360694784	1.112980993519557e-05	-4.999999851048186	0	0	45.00000011886164	-9.999999988573334	6.571435938969846e-18	60.00014061962229	1.047200005472	-4.999999851052011	0	0	0	0	0	0	0	0	0	0	0	-1.077613842297402e-35	0	0	0	0	0	0	-1.077613842297402e-35
12.98333333333333	577.550859093053	-382.9557741570107	165.3087941821156	0	0.93	0	73.34335515355967	-14.98423649781774	-1.699134374849134	0.0006353043551007053	1.108815274876654e-05	-4.99999985104818	0	0	45.00000011886164	-9.999999988573334	6.571435938969846e-18	60.00014061962229	1.047200005472	-4.999999851051967	0	0	0	0	0	0	0	0	0	0	0	-4.45530990274162e-42	0	0	0	0	0	0	-4.45530990274162e-42
13	575.9282245556599	-383.909182908018	166.3700150898688	0	0.93	0	73.62290731445695	-14.62182470247685	-2.187945325368808	0.0006331082024731583	1.104982265453952e-05	-4.999999851048173	0	0	45.00000011886164	-9.999999988573334	6.571435938969846e-18	60.00014061962229	1.047200005472	-4.999999851051922	0	0	0	0	0	0	0	0	0	0	0	-3.957509144317877e-46	0	0	0	0	0	0	-3.957509144317877e-46
13.01666666666667	573.463325861207	-385.2889043120123	167.0883004295972	0	0.93	0	74.32195546379366	-14.45558954261041	-3.069674837562242	0.0006337454260257325	1.106094430360319e-05	-4.999999851048164	0	0	45.00000011886164	-9.999999988573334	6.571435938969846e-18	60.00014061962229	1.047200005472	-4.999999851051868	0	0	0	0	0	0	0	0	0	0	0	-7.124216743631407e-50	0	0	0	0	0	0	-7.124216743631407e-50
13.03333333333333	570.7789235969653	-386.9622094901362	167.5606173388071	0	0.93	0	75.16904229198937	-14.4272432075999	-4.105181214388822	0.0006339183902938498	1.106396309957014e-05	-4.999999851048155	0	0	45.00000011886164	-9.999999988573334	6.571435938969846e-18	60.00014061962229	1.047200005472	-4.999999851051814	0	0	0	0	0	0	0	0	2.20863577533218e-38	0	0	-9.396837782182449e-37	0	0	0	2.20863577533218e-38	0	0	-9.396837782182449e-37
13.05	567.9854776615567	-388.700848285873	168.1932460245532	0	0.93	0	76.06080476124913	-14.37494012690591	-5.155898503471631	0.0006400138475631675	1.117034889833436e-05	-4.999999851048147	0	0	45.00000011886164	-9.999999988573334	6.571435938969846e-18	60.00014061962229	1.047200005472	-4.999999851051763	0	0	0	0	0	0	-2.694034605743505e-36	0	2.227638585062732e-38	0	0	1.543636672616356e-36	0	-2.694034605743505e-36	0	2.227638585062732e-38	0	0	1.543636672616356e-36
13.06666666666667	564.9311871345307	-390.2256769186901	168.9965478890257	0	0.93	0	77.08265667583112	-14.30802613090718	-6.198058580255562	0.0006535270099835631	1.140619807492703e-05	-4.999999851048139	0	0	45.00000011886164	-9.999999988573334	6.571435938969846e-18	60.00014061962229	1.047200005472	-4.999999851051714	0	0	0	0	0	0	0	0	0	0	0	0	0	0	0	0	0	0	0
13.08333333333333	561.8560267484067	-390.4379087750244	169.7492859049807	0	0.93	0	78.26139081998348	-14.29193432707446	-6.923430051408679	0.0006747480339631155	1.177657481401489e-05	-4.999999851048132	0	0	45.00000011886164	-9.999999988573334	6.571435938969846e-18	60.00014061962229	1.047200005472	-4.999999851051668	0	0	0	0	0	0	-8.601319965623189e-37	0	0	0	0	4.758032689630347e-36	0	-8.601319965623189e-37	0	0	0	0	4.758032689630347e-36
13.1	559.4211157759572	-389.8289216316209	170.605692298849	0	0.93	0	79.19956509906604	-14.2351195529431	-7.22442686786082	0.0006951016292723645	1.213181206677976e-05	-4.999999851048131	0	0	45.00000011886164	-9.999999988573334	6.571435938969846e-18	60.00014061962229	1.047200005472	-4.999999851051665	0	0	0	0	0	0	-2.045974664895951e-37	0	0	6.414478875962333e-37	0	5.38806921148701e-36	0	-2.045974664895951e-37	0	0	6.414478875962333e-37	0	5.38806921148701e-36
13.11666666666667	558.1251779365233	-389.4333871654024	171.3127415821116	0	0.93	0	79.56328215211947	-14.12629227512509	-7.295513911642866	0.0007022634879193734	1.225681008073249e-05	-4.99999985104813	0	0	45.00000011886164	-9.999999988573334	6.571435938969846e-18	60.00014061962229	1.047200005472	-4.999999851051662	0	0	0	0	0	0	8.768251602947098e-36	0	0	0	0	5.334193853566043e-40	0	8.768251602947098e-36	0	0	0	0	5.334193853566043e-40
13.13333333333333	557.4620102481114	-389.7309348316857	172.1936553910898	0	0.93	0	79.43743249809609	-13.8136884111587	-7.33671717469518	0.0007002611394620999	1.222186250738084e-05	-4.999999851048124	0	0	45.00000011886164	-9.999999988573334	6.571435938969846e-18	60.00014061962229	1.047200005472	-4.999999851051622	0	0	0	0	0	0	8.98281888228813e-36	0	0	7.588359795425434e-41	0	1.268684587513837e-46	0	8.98281888228813e-36	0	0	7.588359795425434e-41	0	1.268684587513837e-46
13.15	555.974654142678	-390.9062356506267	173.4744045473019	0	0.93	0	79.6018681595535	-13.42491024111673	-7.767287455004189	0.0007081362798552468	1.235930963629805e-05	-4.99999985104812	0	0	45.00000011886164	-9.999999988573334	6.571435938969846e-18	60.00014061962229	1.047200005472	-4.999999851051578	0	0	0	0	0	0	1.218222335532453e-41	0	5.104593084339788e-40	5.571581978704008e-39	0	0	0	1.218222335532453e-41	0	5.104593084339788e-40	5.571581978704008e-39	0	0
